<svg xmlns="http://www.w3.org/2000/svg" viewBox="0 0 500 500"><g id="freepik--character-3--inject-93"><path d="M443,365.8s-7.64,9.82-10.64,18.82-23.46,34.92-23.46,34.92l4.64,9.55s27.83-25.92,33.83-32.19,25.37-28.65,25.64-30.56-7.91-15.82-7.91-15.82Z" style="fill:#fff;stroke:#263238;stroke-linecap:round;stroke-linejoin:round"></path><polygon points="452.63 361.43 466.57 353.83 465.11 350.52 451.36 361.18 452.63 361.43" style="fill:#263238;stroke:#263238;stroke-linecap:round;stroke-linejoin:round"></polygon><path d="M342.24,390.07s31.63,46.94,32.63,48.6,2.66,5.33,4.33,5.33,8.44,2.2,8.77-.13-1.22-7.81-2.22-10.8S368,387,368,387Z" style="fill:#fff;stroke:#263238;stroke-linecap:round;stroke-linejoin:round"></path><path d="M343.88,392.61s8.87,4.06,16,4.31,10.64-1.77,10.64-1.77l-1.26-4.31-25.86-.76Z" style="fill:#263238;stroke:#263238;stroke-linecap:round;stroke-linejoin:round"></path><path d="M382.53,441s-6-8-7.66-6.32-2,6.66-3.66,9-17,10.32-16.65,11.65,1.43,3.33,5,3.33h31s1.66-5,.66-7.66-4-12-4-12Z" style="fill:#263238;stroke:#263238;stroke-linecap:round;stroke-linejoin:round"></path><path d="M354.61,455.48c.38,1.33,1.52,3.17,4.94,3.17h31a19.32,19.32,0,0,0,1-6.16,149.32,149.32,0,0,1-14.74,3C370,456.42,358.27,455.73,354.61,455.48Z" style="fill:#FFFFFF;stroke:#263238;stroke-linecap:round;stroke-linejoin:round"></path><path d="M421.33,430s2-4.4,1.29-6.42-5,.37-5.69.73-5.68-9.35-5.68-9.35a29.5,29.5,0,0,1-6.79,4c-3.12,1.1-6.79,4-7,5.31s4,9.91,4.59,14.68,2.38,12.28,5.13,14.67,7.34,2.75,7.7,1.46-1.65-6.05-1.65-7.15,5.5-14.67,5.69-15.59S421.33,430,421.33,430Z" style="fill:#263238;stroke:#263238;stroke-linecap:round;stroke-linejoin:round"></path><path d="M414.91,455.07a1.68,1.68,0,0,0,0-.53c-3.38.15-7.17-1.83-8.29-4.23-1.28-2.75-2-10.46-3.12-18.71-.81-6.08-2.71-9-3.66-10.07-1.33,1-2.3,2.09-2.39,2.73-.18,1.29,4,9.91,4.59,14.68s2.38,12.28,5.13,14.67S414.55,456.36,414.91,455.07Z" style="fill:#FFFFFF;stroke:#263238;stroke-linecap:round;stroke-linejoin:round"></path><path d="M402.83,216.61s16.65,4.33,21.31,6-4.33,14.32-4.33,14.32l-19.31-1Z" style="fill:#fff;stroke:#263238;stroke-linecap:round;stroke-linejoin:round"></path><path d="M352.56,320.15s-7,27.3-9,40-4,31-4,31a68,68,0,0,0,24,2c13-1.33,18-4.33,18-4.33l9.9-43.92,6.41-9.68,33,38.62s15.65-8,22.64-13.32l14-10.65s-22.64-31.63-30.29-38.95-17-14.65-17-14.65l-64.59,20.31Z" style="fill:#FFFFFF;stroke:#263238;stroke-linecap:round;stroke-linejoin:round"></path><polygon points="397.84 335.13 403.2 323.13 401.03 333.66 413.11 324.06 401.65 339.54 397.84 335.13" style="fill:#263238;stroke:#263238;stroke-linecap:round;stroke-linejoin:round"></polygon><path d="M378,384.33c1.25-.43,2.51-.91,3.79-1.44" style="fill:none;stroke:#263238;stroke-linecap:round;stroke-linejoin:round"></path><path d="M341,385.06s13.83,5.83,33.12.5" style="fill:none;stroke:#263238;stroke-linecap:round;stroke-linejoin:round"></path><path d="M428.9,369s20.74-12.08,33.44-23.22" style="fill:none;stroke:#263238;stroke-linecap:round;stroke-linejoin:round"></path><path d="M409.49,281.2c-.66-1.33-8.32-20.64-8.32-20.64s.33-4.33.33-11a50,50,0,0,0-1.33-11.65s5.66-4.66,7.66-7.33,4.66-11.65,4.66-11.65-9-3-12.32-3.66-9.65-2-15-1.33-15.32,5-15.32,5l-2.33-7.66s-11-6-15-6.66-10.32-.66-11,.67,8.32,21.64,8.32,21.64a100.36,100.36,0,0,0-10.61,5.22c-2.74,1-11,1.32-14.17,3.64-3.67,2.67-5.85,11.45-4.52,12.78s5.66.33,5.66.33l15.1,8.92c5.65,7.72,13.87,26.16,13.87,30.7s-3.33,33.63-3.33,33.63,26,1.66,41.61-5.66,28-20.31,28-20.31S410.16,282.53,409.49,281.2Z" style="fill:#263238;stroke:#263238;stroke-linecap:round;stroke-linejoin:round"></path><path d="M385.19,214c-5.33.66-15.32,5-15.32,5l-2.33-7.66s-11-6-15-6.66-10.32-.66-11,.67,8.32,21.64,8.32,21.64-3.5,1.44-7.41,3.46c4.85,4,13.07,8.22,23.72,4.2,13.9-5.25,22-16.27,24.83-20.72A30,30,0,0,0,385.19,214Z" style="fill:#fff;stroke:#263238;stroke-linecap:round;stroke-linejoin:round"></path><path d="M349.32,211.13a57.73,57.73,0,0,0,8.56,5c3.55,1.48,11.22,1.18,11.22,1.18l-1.56-6.05Z" style="fill:#263238;stroke:#263238;stroke-linecap:round;stroke-linejoin:round"></path><path d="M326.26,248.9s12.32-4,15-3,22.31,30.63,21.31,31.63-13.65,11-13.65,11-12.65-18.64-18.64-27.63S326.26,248.9,326.26,248.9Z" style="fill:#fff;stroke:#263238;stroke-linecap:round;stroke-linejoin:round"></path><path d="M343.24,280.2s7,10.9,8.32,11,15.76-13.39,21.37-18.5S395.18,244,395.18,244a26.34,26.34,0,0,0,6-3.22c3.48-2.41,5.85-9.72,5.85-9.72s3.89-8.82,4.35-10.48-.2-6.73-1.26-5.37-4.18,5.65-7,8.58-11.93,13.9-11.93,13.9-38.54,31.19-39.44,31.49" style="fill:#fff;stroke:#263238;stroke-linecap:round;stroke-linejoin:round"></path><path d="M410.84,221.87a2.18,2.18,0,0,0-2.56,1.32c-.7,1.8-5.23,8-6.92,9.83" style="fill:#fff;stroke:#263238;stroke-linecap:round;stroke-linejoin:round"></path><path d="M411,218.22a2.58,2.58,0,0,0-2.26,1.15c-.82,1.27-5.82,7.4-7.27,9.25" style="fill:#fff;stroke:#263238;stroke-linecap:round;stroke-linejoin:round"></path><path d="M419.71,221.35s12.72,5.06,13.09,6.25c1.39,4.52-2.07,10.93-7.61,17-4.94,5.45-29.26,29.71-29.26,29.71a25.52,25.52,0,0,1-1.76,6.34c-1.51,3.81-7.91,7.62-7.91,7.62s-7.49,5.58-9,6.37-6.39,1.26-5.34,0,4.43-5.16,6.6-8.44,13.24-19.9,13.24-19.9S412.32,232,412.41,231" style="fill:#fff;stroke:#263238;stroke-linecap:round;stroke-linejoin:round"></path><path d="M379.5,293.48a2.21,2.21,0,0,1,.74-3,21.24,21.24,0,0,0,5-6" style="fill:#fff;stroke:#263238;stroke-linecap:round;stroke-linejoin:round"></path><path d="M375.9,294.77s-1.64.08.4-1.82,5.55-7.15,6.09-8" style="fill:#fff;stroke:#263238;stroke-linecap:round;stroke-linejoin:round"></path><path d="M328.92,200.63s-12.65,8.65-12.31,11.32,14.31,6,16,5,4.32-19.64,3.66-20.64S328.92,200.63,328.92,200.63Z" style="fill:#FFFFFF;stroke:#263238;stroke-linecap:round;stroke-linejoin:round"></path><path d="M330.92,196.3s-1,11.32-5.33,19.31-4.66,16.65,8.33,20.31,23-6.66,23.64-8.66,1.66-4.66,1.66-4.66-4,3.66-8.32-2.66-6-13-1.67-16.65,11-7,11.32-11.65.34-15.65.34-15.65Z" style="fill:#263238;stroke:#263238;stroke-linecap:round;stroke-linejoin:round"></path><path d="M368.21,179.32s2.66,6.66,5,7,4-.66,3.67,1.67a15.82,15.82,0,0,1-2,5s2.69,17.75.36,19.08-13.68,3.23-23.67,1.23c-2.94-.59-6-5.66-6-5.66s-7.78-.19-8.78-5.51,3.74-7.63,6.4-6.63,4,4.48,4,4.48,10.33-6.66,11-10.65a64.89,64.89,0,0,0,.67-9Z" style="fill:#fff;stroke:#263238;stroke-linecap:round;stroke-linejoin:round"></path><path d="M336.35,205.3a.55.55,0,0,1-.37-.14.54.54,0,0,1,0-.77l2.87-3.09a.54.54,0,0,1,.77,0,.55.55,0,0,1,0,.77l-2.87,3.09A.58.58,0,0,1,336.35,205.3Z" style="fill:#FFFFFF;stroke:#263238;stroke-linecap:round;stroke-linejoin:round;stroke-width:0.5px"></path><path d="M339.66,207.73a.52.52,0,0,1-.21,0,.55.55,0,0,1-.29-.72l1.33-3.09a.53.53,0,0,1,.71-.28.54.54,0,0,1,.29.71l-1.33,3.09A.54.54,0,0,1,339.66,207.73Z" style="fill:#FFFFFF;stroke:#263238;stroke-linecap:round;stroke-linejoin:round;stroke-width:0.5px"></path><path d="M343,209.5h-.1a.54.54,0,0,1-.44-.63l.66-3.75a.54.54,0,0,1,1.07.19l-.66,3.75A.55.55,0,0,1,343,209.5Z" style="fill:#FFFFFF;stroke:#263238;stroke-linecap:round;stroke-linejoin:round;stroke-width:0.5px"></path><path d="M362.88,187.64s3.33-2.66,5.66-1" style="fill:none;stroke:#263238;stroke-linecap:round;stroke-linejoin:round;stroke-width:2px"></path><path d="M361.88,183.65s1-4.66,4.66-4" style="fill:none;stroke:#263238;stroke-linecap:round;stroke-linejoin:round"></path><path d="M374.53,196.3s-5,4.66-11,1.33" style="fill:none;stroke:#263238;stroke-linecap:round;stroke-linejoin:round"></path><path d="M328.92,200.63s19.31-14.65,27.64-18,11.65-3.33,11.65-3.33-4.66-9.65-7-12.65-21.31.33-25,2-6.66,4.66-10.32,12S324.6,195,328.92,200.63Z" style="fill:#FFFFFF;stroke:#263238;stroke-linecap:round;stroke-linejoin:round"></path></g><g id="freepik--character-1--inject-93"><path d="M67.72,326.05s-22.44,36.69-22.08,39.89c.33,2.95,20.86,65.56,23.82,74.81a1.6,1.6,0,0,0,1.75,1.09l9.64-1.38a1.59,1.59,0,0,0,1.36-1.71c-.55-6.53-2.72-32.68-2.72-42.31,0-11-4.29-32.28-4.29-32.28s32.41-25.28,35.26-27.07,14.6-2.84,17.45-2.13,39.89,28.13,39.89,28.13l-31.71,57.42,3.08,11.92s65-67.2,65.32-70.4-26.36-34.91-37-45.24-17.1-14.6-17.1-14.6L75.56,314.66Z" style="fill:#263238;stroke:#263238;stroke-linecap:round;stroke-linejoin:round"></path><line x1="167.8" y1="363.09" x2="180.98" y2="372.35" style="fill:none;stroke:#616161;stroke-linecap:round;stroke-linejoin:round"></line><line x1="75.2" y1="364.16" x2="69.5" y2="369.51" style="fill:none;stroke:#616161;stroke-linecap:round;stroke-linejoin:round"></line><path d="M59.83,213.31s-16.27,26.23-16.6,30.21,32.2,65.07,32.2,65.07l-9,18.26s16.59,10.62,44.48,5.64,43-27.81,43-27.81l-13.08-13.35-24.57-76S111.28,202,109,201s-29.88,6-37.85,6.31A13.9,13.9,0,0,0,59.83,213.31Z" style="fill:#FFFFFF;stroke:#263238;stroke-linecap:round;stroke-linejoin:round"></path><path d="M56.08,271.93s15,15,17.23,15.73,11.61-12,11.61-12Z" style="fill:#263238;stroke:#263238;stroke-linecap:round;stroke-linejoin:round"></path><path d="M101.89,317.35q-2.73,1.25-5.68,2.42" style="fill:none;stroke:#263238;stroke-linecap:round;stroke-linejoin:round"></path><path d="M134.81,293.18s-8.36,10.95-25.79,20.57" style="fill:none;stroke:#263238;stroke-linecap:round;stroke-linejoin:round"></path><path d="M111.22,304.33s-14.58,8.15-27,12" style="fill:none;stroke:#263238;stroke-linecap:round;stroke-linejoin:round"></path><path d="M89.68,204.19s17.73-4.54,25.13-5.56,31.9-5.78,32.67-5.78-3.58,22.45-3.58,22.45l-30.36,13.19" style="fill:#FFFFFF;stroke:#263238;stroke-linecap:round;stroke-linejoin:round"></path><path d="M148.55,193.2a115.78,115.78,0,0,0-14.71,1.94,49.75,49.75,0,0,0,1.6,23.74l8.46-3.58S149.31,193.2,148.55,193.2Z" style="fill:#b2b2b2;stroke:#263238;stroke-linecap:round;stroke-linejoin:round"></path><path d="M59.83,213.31s-2.32,3.74-5.23,8.61c2.8,5.36,15,16.87,28.74,7.35,10.63-7.35,7.38-17.71,6.34-25.08-7.43,1.5-15,3-18.57,3.15A13.9,13.9,0,0,0,59.83,213.31Z" style="fill:#b2b2b2;stroke:#263238;stroke-linecap:round;stroke-linejoin:round"></path><path d="M36.59,188.42c-1.33-.34-18.59,2-16.6-.67s8.63-4.31,8.63-4.31-9-2.66-9-7.31,7.63,2.66,10,4-4-6-5-11,5,1.66,5,1.66-4-20.58,1.32-22.57,5,19.25,5,19.25,2-10.62,6.31-12.95.33,6.64,0,7.64,7-9.63,14.28-11.62-1.66,7.64-4.65,10.29a46.81,46.81,0,0,1-4,3.32s14.6-7.63,13.94-4.31-1.66,3.65-1.66,3.65,11-4,11.28-1.33-18.59,4.32-21.91,6.64-4.64,5-6.3,9.63S36.59,188.42,36.59,188.42Z" style="fill:#263238;stroke:#263238;stroke-linecap:round;stroke-linejoin:round"></path><path d="M64.14,221.28,53.85,207.67s-3.82-.66-10.29-5c-11-7.3-10-20.25-4-27.22s17.92-10.29,22.57-8.3,8.63,4,10.29,7,0,2.66,0,2.66,6.64,1.32,7.3,2.32-1.32,5-1.32,5,6.64,8.63,6.64,13.94-3.66,5.65-3.66,5.65l2,12.28" style="fill:#b2b2b2;stroke:#263238;stroke-linecap:round;stroke-linejoin:round"></path><path d="M77.53,183s-1.92,2.34-2.56,2.34-3.2,0-1.92-2.56" style="fill:none;stroke:#263238;stroke-linecap:round;stroke-linejoin:round"></path><path d="M70.12,174.47s-3.65-1.33-4.32,2" style="fill:none;stroke:#263238;stroke-linecap:round;stroke-linejoin:round"></path><path d="M71,177.5c.61,1,.58,2.16,0,2.53s-1.63-.16-2.24-1.19-.58-2.16.06-2.53S70.35,176.47,71,177.5Z" style="fill:#263238"></path><path d="M84.07,193.78a.87.87,0,0,1,0,.28c-.33,1.66-4,4.31-7.3,3.65s-3.66-4-3.32-6.31,7-3.91,7.28-4c-1.26-2-2.3-3.33-2.3-3.33s-9,6.31-9,8.63,4.32,8.3,3.32,8.63-5.64.33-7.63-1-11.29-14-11.29-15.61,2.66-4,1-5.64-6.23-6.89,4.72-12.48c-5.56-.36-14.92,2.91-20,8.83-6,7-7,19.92,4,27.22,6.47,4.32,10.29,5,10.29,5l3.79-9.53s7.17,6.54,8.16,6.54,10.16,2.14,16.13,1.48c.12,0-.32-2.52-.2-2.54.88-.22,3.33-1.23,3.33-5.58A12.2,12.2,0,0,0,84.07,193.78Z" style="fill:#263238;stroke:#263238;stroke-linecap:round;stroke-linejoin:round"></path><path d="M82.07,189.74s-6.31,3.32-8.63,1.66" style="fill:none;stroke:#263238;stroke-linecap:round;stroke-linejoin:round"></path><path d="M55.18,194.06a12.54,12.54,0,0,0-5.65-1c-2.65.34-2.65,4,1.33,6.31s7.31,2,7.31,0v-2Z" style="fill:#b2b2b2;stroke:#263238;stroke-linecap:round;stroke-linejoin:round"></path><path d="M50,229.77s-9.69,12-12,20.92,3.83,12.25,6.89,14.8S68.18,280,73.22,281.82s15-19.65,14.8-21.43-25.78-17.87-25.78-17.87" style="fill:#FFFFFF;stroke:#263238;stroke-linecap:round;stroke-linejoin:round"></path><path d="M88,260.39c-.13-.89-6.54-5.34-12.93-9.57-11.6,4.83-13.92,17.91-14.33,24.52a116.1,116.1,0,0,0,12.46,6.48C78.26,283.66,88.27,262.17,88,260.39Z" style="fill:#b2b2b2;stroke:#263238;stroke-linecap:round;stroke-linejoin:round"></path><path d="M68.37,279.53s8.54,4.39,9.89,4.13S91.56,271.29,96,264.52,111.55,229,111.55,229a28.28,28.28,0,0,0,5.35-4.91c3-3.4,3.52-11.6,3.52-11.6s1.71-10.16,1.75-12-2-6.91-2.71-5.23-2.85,6.95-5,10.72-12.9,23-12.9,23S74.84,258.57,74,259.11" style="fill:#b2b2b2;stroke:#263238;stroke-linecap:round;stroke-linejoin:round"></path><path d="M122,202a2.32,2.32,0,0,0-2.3,2c-.25,2-3.32,9.7-4.59,12" style="fill:none;stroke:#263238;stroke-linecap:round;stroke-linejoin:round"></path><path d="M121.19,198.12a2.77,2.77,0,0,0-2,1.79c-.51,1.53-4.08,9.19-5.1,11.48" style="fill:none;stroke:#263238;stroke-linecap:round;stroke-linejoin:round"></path><path d="M144.41,193.36s13.86-2.33,15.06-.26c2.62,4.52-1.18,18-6.63,25.26C148,224.85,123.74,254,123.74,254a28.1,28.1,0,0,1-1.27,7.14c-1.28,4.34-7.91,9.19-7.91,9.19s-7.66,6.89-9.19,7.91-6.89,2-5.87.51,4.34-6.12,6.38-9.95,12.51-23.22,12.51-23.22,19-39.83,19-40.85" style="fill:#b2b2b2;stroke:#263238;stroke-linecap:round;stroke-linejoin:round"></path><path d="M107.67,276.72a2.44,2.44,0,0,1,.51-3.32,23.71,23.71,0,0,0,4.85-7.14" style="fill:none;stroke:#263238;stroke-linecap:round;stroke-linejoin:round"></path><path d="M103.84,278.51s-1.79.25.26-2S109.45,268,110,267" style="fill:none;stroke:#263238;stroke-linecap:round;stroke-linejoin:round"></path><path d="M84.85,433.26,76,435a1.58,1.58,0,0,1-1.69-.76c-1.1-1.87-3.61-5.78-5.5-5.78-2.5,0-5.35,2.85-4.28,5.35a23.55,23.55,0,0,1,1.36,5.81,1.55,1.55,0,0,1-.26,1.09c-1.12,1.64-4.92,7-8.22,9.12-3.92,2.5-9.26,5.7-7.84,7.84,1.31,2,33.14.33,38.44,0a1.58,1.58,0,0,0,1.29-.8,7.47,7.47,0,0,0,.88-4.58c-.32-3.13-2.56-14.79-3.09-17.57a1.6,1.6,0,0,0-.61-1l-.36-.27A1.61,1.61,0,0,0,84.85,433.26Z" style="fill:#fff;stroke:#263238;stroke-linecap:round;stroke-linejoin:round"></path><path d="M51.18,454.92a1.52,1.52,0,0,0-1.28.62,1.83,1.83,0,0,0-.33,2.16c1.31,2,33.1.33,38.43,0a1.54,1.54,0,0,0,1.27-.77l.06-.09a1.59,1.59,0,0,0-1.5-2.33C76.67,455.11,59.48,455,51.18,454.92Z" style="fill:#fff;stroke:#263238;stroke-linecap:round;stroke-linejoin:round"></path><path d="M137.39,418.89l3.56,8.2s8.91-7.48,10.69-5.35-.71,7.13-3.21,8.91a17.13,17.13,0,0,0-3.92,3.92s-2.49,11.75-2.13,14.6,5.7,2.14,5.7,4.27-1.43,4.63-6.77,4.63-12.11-1.78-13.54-4.63-3.2-11.4-7.12-18.16-4.27-13.18-.71-15,15.67-7.12,16.74-5.34A6.38,6.38,0,0,1,137.39,418.89Z" style="fill:#fff;stroke:#263238;stroke-linecap:round;stroke-linejoin:round"></path><path d="M147.2,456c-5,.16-14.38-.42-16.93-3.29-2.85-3.21-4.28-15-6.77-21.37a41.66,41.66,0,0,1-2.39-11.61l-1.17.57c-3.56,1.78-3.21,8.19.71,15s5.7,15.31,7.12,18.16,8.2,4.63,13.54,4.63C144.49,458.07,146.28,457.19,147.2,456Z" style="fill:#fff;stroke:#263238;stroke-linecap:round;stroke-linejoin:round"></path></g><g id="freepik--character-2--inject-93"><path d="M329.35,346.72s-8.51,5.81-11.61,12.39-17.81,34.07-22.07,37.17-20.9,3.48-22.07,5.8,1.94,8.52,4.65,17,6.58,19.74,10.07,22.84,7.35,5.81,8.51,2.71-1.16-12.78-1.16-15.49,7-18.19,8.13-20.13,31.36-25.55,38.72-36,15.87-23.62,15.87-27.1-8.91-11.62-8.91-11.62Z" style="fill:#fff;stroke:#263238;stroke-linecap:round;stroke-linejoin:round"></path><path d="M294.9,411,292,397.81c-6.47,1.79-17.43,2.4-18.37,4.27-1.16,2.33,1.94,8.52,4.65,17s6.58,19.74,10.07,22.84,7.35,5.81,8.51,2.71-1.16-12.78-1.16-15.49,7-18.19,8.13-20.13Z" style="fill:#fff;stroke:#263238;stroke-linecap:round;stroke-linejoin:round"></path><path d="M291.7,444.65a62.09,62.09,0,0,1-7.26-16.24c-2.41-8.16-5.31-22.23-6.46-28-2.33.47-4,1-4.38,1.67-1.16,2.33,1.94,8.52,4.65,17s6.58,19.74,10.07,22.84A32.57,32.57,0,0,0,291.7,444.65Z" style="fill:#fff;stroke:#263238;stroke-linecap:round;stroke-linejoin:round"></path><path d="M215.53,435.38s-8.13,8.13-12,12.39-11.23,7-9.29,9.67,46.84,0,46.84,0a3.15,3.15,0,0,0,3.1-2.71c.39-2.71-5-21.29-5-21.29Z" style="fill:#fff;stroke:#263238;stroke-linecap:round;stroke-linejoin:round"></path><path d="M244.18,454.73a20.13,20.13,0,0,0-.7-4.81c-6,1.36-13.62,3.73-19.43,4.43-8.2,1-23.62.3-28.85.07-1.13,1.05-1.66,2-1,3,1.93,2.71,46.84,0,46.84,0A3.15,3.15,0,0,0,244.18,454.73Z" style="fill:#fff;stroke:#263238;stroke-linecap:round;stroke-linejoin:round"></path><path d="M222.28,272l-16.43,42.57S190,352.53,193.08,361.82s14.71,53,14.71,59.62-3.49,9.68,0,12,7.74,5.42,13.16,5,17,0,18.2-1.54,5-11.23,3.87-14.72-6.19-16.26-8.13-29.81-8.52-34.84-7.74-37.16,24.77-37.17,27.87-39.88,15.49-5,15.49-5,25.94,24.39,29.81,28.26,16.26,4.65,16.26,4.65l26.32-18.59s-1.55-7.74-15.48-21.68-58.24-46.33-58.24-46.33Z" style="fill:#FFFFFF;stroke:#263238;stroke-linecap:round;stroke-linejoin:round"></path><polygon points="227.15 355.24 224.19 345.72 229.75 350.63 227.15 355.24" style="fill:#263238;stroke:#263238;stroke-linecap:round;stroke-linejoin:round"></polygon><path d="M279.3,277.32s-5.63,14.4-7.21,23.7" style="fill:none;stroke:#263238;stroke-linecap:round;stroke-linejoin:round"></path><path d="M275.7,276.29s-5,14.94-3.78,18" style="fill:none;stroke:#263238;stroke-linecap:round;stroke-linejoin:round"></path><path d="M207.79,358.72s6.19,36.78,15.48,53" style="fill:none;stroke:#263238;stroke-linecap:round;stroke-linejoin:round"></path><path d="M234.4,409.42c.44.58.86,1.1,1.26,1.57" style="fill:none;stroke:#263238;stroke-linecap:round;stroke-linejoin:round"></path><path d="M213.21,371.5s9.38,19.51,17.11,31.9" style="fill:none;stroke:#263238;stroke-linecap:round;stroke-linejoin:round"></path><path d="M222.28,272s-6.75,9.27-8.68,16.24-4.65,12-7,14.33-13.55,11.61-17.42,14.71-3.88,3.48-1.94,7.35,1.94,6.2,3.1,5.81,8.9-8.13,15.48-15.87,23.62-14.71,28.65-22.07S248.44,272,248.44,272s-7.36,34.84-7.74,38.33,2.32,4.26,3.87,4.26,7-2.33,7-2.33l1.55-3.87s4.25-1.93,4.25-5.42S255,272.39,255,272.39s3.87,25.94,5.81,26.32,8.52-1.93,8.52-7-10.84-23.23-10.84-23.23,9.67,2.32,14.32,2.32,21.29,4.65,21.29,4.65-1.55-7.36-3.09-10.07-21.85-8.78-21.85-8.78S260.39,269.71,222.28,272Z" style="fill:#263238;stroke:#263238;stroke-linecap:round;stroke-linejoin:round"></path><path d="M226.22,134.07s2.59,2.59,8.51,7.4,7.78,9.26,21.47,4.07,30,4.07,32.93,11.11S288,174,286.54,175.15s-1.11,0-1.85-4.07-8.14-6.66-8.14-6.66a19.9,19.9,0,0,1,2.22,13.32c-1.48,7.4-6.88,15.4-23.68,23.69s-31.46,5.92-39.23-12.22S222.52,133.33,226.22,134.07Z" style="fill:#263238;stroke:#263238;stroke-linecap:round;stroke-linejoin:round"></path><path d="M256.2,145.54c-13.69,5.19-15.54.74-21.47-4.07s-8.51-7.4-8.51-7.4c-.33-.06-.75.19-1.23.7l1,1.08s4.67,19.06,18.76,18.42c10-.45,20-7.36,31.63-7.89C270.27,143.94,262.92,143,256.2,145.54Z" style="fill:#FFFFFF;stroke:#263238;stroke-linecap:round;stroke-linejoin:round"></path><path d="M230.22,190.39s12.16-5.7,23.82-5.95,50.37-.75,53.84-.75-.25,5.46-2.73,10.92S294.73,205,291,205.53s-32.5,3.47-32.5,3.47,4.21,9.68,3.22,14.14-4.46,12.66-4.46,12.66l11.91,20.84s-9.93,8.43-19.36,11.91S224.27,272,223.28,272h-1S199.71,238.28,194,232.57s-9.18-17.12-6.7-22.08,17.37-14.14,20.1-16.13,16.62-5,16.62-5Z" style="fill:#fff;stroke:#263238;stroke-linecap:round;stroke-linejoin:round"></path><line x1="252.68" y1="207.77" x2="248.3" y2="190.54" style="fill:none;stroke:#263238;stroke-linecap:round;stroke-linejoin:round"></line><path d="M293.51,184.08s15.18-1.6,15.73-.27c2.08,5-1.24,18.8-6.93,26.39-5.09,6.78-30.39,37.24-30.39,37.24a29.14,29.14,0,0,1-1.34,7.46c-1.33,4.53-8.26,9.6-8.26,9.6s-8,7.2-9.6,8.26-7.2,2.14-6.13.54,4.53-6.4,6.67-10.4,13.06-24.26,13.06-24.26S286.17,197,286.17,196" style="fill:#fff;stroke:#263238;stroke-linecap:round;stroke-linejoin:round"></path><path d="M255.12,271.16a2.55,2.55,0,0,1,.53-3.46,24.65,24.65,0,0,0,5.07-7.47" style="fill:#fff;stroke:#263238;stroke-linecap:round;stroke-linejoin:round"></path><path d="M251.12,273s-1.86.27.27-2.13,5.6-8.8,6.13-9.87" style="fill:#fff;stroke:#263238;stroke-linecap:round;stroke-linejoin:round"></path><path d="M233.23,189.13c3.61,5,13.64,19.33,12.62,24.83-1.24,6.7-14.39,12.9-21.09,13.65s-11.41-4.22-13.64-9.18c-1.62-3.61-6.52-14.68-9.08-20.46-1,.71-2.16,1.47-3.3,2.28,3,6.95,10.4,24.43,11.39,30.34A21.8,21.8,0,0,1,207.89,244s1.5,7.47,2.7,10.9l1.17,1.69c3.3,1,17.33-3,26.4-7.13,6.54-2.94,14.68-9.11,19.49-13l-.38-.66a112.22,112.22,0,0,0,4.46-12.66A15.67,15.67,0,0,0,258.51,209l-23.25-20.64C234.51,188.63,233.83,188.89,233.23,189.13Z" style="fill:#263238;stroke:#263238;stroke-linecap:round;stroke-linejoin:round"></path><polyline points="233.2 197.59 233.7 178.98 204.67 178.48 205.16 198.33" style="fill:#fff;stroke:#263238;stroke-linecap:round;stroke-linejoin:round"></polyline><path d="M215.46,179.16s5,5.05,17.67,5.74l.57-5.92Z" style="fill:#263238;stroke:#263238;stroke-linecap:round;stroke-linejoin:round"></path><path d="M226,135.85s3.17,6.33,5.28,10.2,3.87,5.27,6.68,5.62,3.87,1.76,3.17,4.23-2.47,3.51-2.47,4.57,3.17,13,2.47,16.53-8.45,4.57-12.67,4.57S213,179.11,213,179.11s5.27-34.47,5.27-35.53S221.4,133.73,226,135.85Z" style="fill:#fff;stroke:#263238;stroke-linecap:round;stroke-linejoin:round"></path><path d="M230.61,151.88c.45,1.39.37,2.66-.17,2.83s-1.35-.8-1.79-2.19-.38-2.65.16-2.83S230.16,150.5,230.61,151.88Z" style="fill:#263238"></path><path d="M237.77,163.79s-2.66,4.06-8.49-.23" style="fill:none;stroke:#263238;stroke-linecap:round;stroke-linejoin:round"></path><path d="M188,208.75a20.86,20.86,0,0,0-5.45,16.63c1.24,10.17,19.1,47.63,20.84,48.87s15.38-7.69,14.14-12.9-13.4-35.23-13.4-34.49" style="fill:#fff;stroke:#263238;stroke-linecap:round;stroke-linejoin:round"></path><path d="M198.24,259.23s4,15.66,5.44,16,21.21-13.72,28.68-18.39,31.38-28.16,31.38-28.16a30.55,30.55,0,0,0,7.5-2.44c4.49-2,8.71-9.89,8.71-9.89s6.28-9.28,7.15-11.08,1.17-7.72-.33-6.39a127.6,127.6,0,0,1-9.76,8.35c-3.82,2.77-16.52,13.41-16.52,13.41S210,248.3,208.89,248.45" style="fill:#fff;stroke:#263238;stroke-linecap:round;stroke-linejoin:round"></path><path d="M286.22,206.66a2.52,2.52,0,0,0-3.19,1c-1.17,1.91-7.65,8.1-9.95,9.8" style="fill:none;stroke:#263238;stroke-linecap:round;stroke-linejoin:round"></path><path d="M287.19,202.53a3,3,0,0,0-2.82.85c-1.2,1.28-8.19,7.24-10.23,9.05" style="fill:none;stroke:#263238;stroke-linecap:round;stroke-linejoin:round"></path><path d="M313.87,343.24s2.32,7.35,7,7.74,31-13.16,31.74-15.1-6.58-12.39-9.68-11.23S313.87,343.24,313.87,343.24Z" style="fill:#FFFFFF;stroke:#263238;stroke-linecap:round;stroke-linejoin:round"></path><line x1="320.84" y1="350.98" x2="346" y2="326.59" style="fill:#fff;stroke:#263238;stroke-linecap:round;stroke-linejoin:round"></line><line x1="329.74" y1="348.66" x2="350.26" y2="331.62" style="fill:#fff;stroke:#263238;stroke-linecap:round;stroke-linejoin:round"></line><path d="M227.73,132s2.11,6-1.41,17.94S213,187.2,215.42,195.29s20.05,10.55,22.86,14.42-3.87,13-8.44,15.13-5.28-1.06-5.28-1.06,6.69-1.05,5.63-4.57-3.52-2.81-12-.7S188,215.34,181,209.36s4.57-27.79,1.05-36.23-13-22.86,2.46-33.77S220,122.48,223.86,126,227.73,132,227.73,132Z" style="fill:#263238;stroke:#263238;stroke-linecap:round;stroke-linejoin:round"></path><path d="M238.28,209.71c-2.81-3.87-20.4-6.33-22.86-14.42s7.39-33.41,10.9-45.37S227.73,132,227.73,132s0-2.47-3.87-6c-1.29-1.18-4.4-1.29-8.54-.51,3.19,4.86,8.53,16.3,1.88,32-9,21.13-26.67,34.32-18.46,42.77,3.64,3.74,9.4,5,14.32,5.94,4.25.85,8.44,2,12.71,2.78,2.61.46,7.12.68,7.58,4.18a9.81,9.81,0,0,1-3.71,8.41l0,0c-1.54,1.64-5,2.19-5,2.19s.71,3.17,5.28,1.06S241.1,213.58,238.28,209.71Z" style="fill:#FFFFFF;stroke:#263238;stroke-linecap:round;stroke-linejoin:round"></path><path d="M203.72,153.19c-.16,1.09-.28,2.19-.47,3.27s-.37,2.17-.61,3.23-.48,2.08-.78,3.11-.62,2.06-1,3.08a55.64,55.64,0,0,1-6.15,11.84c-2.5,3.82-5.3,7.54-7.86,11.56a41.34,41.34,0,0,0-3.41,6.42,23.83,23.83,0,0,0-1.18,3.55c-.17.6-.21,1.25-.32,1.87l-.14.94c0,.32,0,.66,0,1a13.32,13.32,0,0,0,2.22,7.29,19.78,19.78,0,0,0,1.4,1.84,50.15,50.15,0,0,0,4.89,2.12l-.09-.08a19.26,19.26,0,0,1-4.19-5.08,10.83,10.83,0,0,1-1.33-6c0-.26,0-.51.08-.77l.16-.77c.13-.52.18-1,.36-1.55a21.32,21.32,0,0,1,1.22-3,38.55,38.55,0,0,1,3.48-5.67c2.68-3.66,5.7-7.2,8.54-11a67.47,67.47,0,0,0,7.67-12.33c.5-1.13.92-2.31,1.37-3.47s.69-2.41,1-3.63.44-2.42.63-3.63.22-2.44.33-3.66a52.17,52.17,0,0,0-1.38-14.45c-.26-1.17-.6-2.33-.94-3.48s-.76-2.27-1.21-3.38-1-2.42-1.64-3.6l-1.52.61A80.1,80.1,0,0,1,203.72,153.19Z" style="fill:#FFFFFF;stroke:#263238;stroke-linecap:round;stroke-linejoin:round"></path></g><g id="freepik--music-notes--inject-93"><g style="opacity:0.2"><path d="M385.2,90V55h30.34a8.41,8.41,0,0,1,.16,1.18q0,17.38,0,34.77a7,7,0,0,1-4.82,6.9,8,8,0,0,1-8.62-2,6.84,6.84,0,0,1-.59-8.34,7.87,7.87,0,0,1,9-2.83c.76.27,1.47.66,2.38,1.07V63.8H388.17V66c0,9.71,0,19.42,0,29.13,0,5.16-4.13,8.64-9,7.74-4.27-.79-7-4.27-6.31-8.12s4.55-6.42,8.59-5.84A29.23,29.23,0,0,1,385.2,90Z"></path><path d="M319.3,144V120h20.86a6.6,6.6,0,0,1,.11.81c0,8,0,15.94,0,23.91a4.82,4.82,0,0,1-3.31,4.74,5.5,5.5,0,0,1-5.93-1.38,4.71,4.71,0,0,1-.4-5.74,5.4,5.4,0,0,1,6.19-1.94c.52.18,1,.45,1.64.73V126.05H321.34v1.51c0,6.67,0,13.35,0,20a5.17,5.17,0,0,1-6.21,5.32c-2.94-.54-4.8-2.93-4.35-5.58a5.24,5.24,0,0,1,5.91-4A20.68,20.68,0,0,1,319.3,144Z"></path><path d="M263,94.37V79.46h12.93A3.92,3.92,0,0,1,276,80q0,7.41,0,14.82A3,3,0,0,1,274,97.73a3.43,3.43,0,0,1-3.68-.86,2.92,2.92,0,0,1-.25-3.56,3.35,3.35,0,0,1,3.84-1.2c.33.11.63.28,1,.45V83.21H264.25v.94c0,4.14,0,8.27,0,12.41a3.2,3.2,0,0,1-3.85,3.3,3.06,3.06,0,0,1-2.69-3.46,3.24,3.24,0,0,1,3.66-2.49A11.62,11.62,0,0,1,263,94.37Z"></path><path d="M228.82,73V49h20.85a5,5,0,0,1,.12.82c0,8,0,15.93,0,23.9a4.81,4.81,0,0,1-3.31,4.74A5.5,5.5,0,0,1,240.57,77a4.7,4.7,0,0,1-.4-5.74,5.4,5.4,0,0,1,6.19-1.94c.52.18,1,.45,1.64.73V55H230.86v1.51c0,6.67,0,13.35,0,20a5.17,5.17,0,0,1-6.21,5.31c-2.94-.54-4.8-2.93-4.35-5.58a5.24,5.24,0,0,1,5.91-4A21.17,21.17,0,0,1,228.82,73Z"></path><path d="M83.17,115.3V82c.15.21.23.3.29.4a25.1,25.1,0,0,0,5.89,6.44,15.52,15.52,0,0,1,5,6.19,9.29,9.29,0,0,1,.72,6.45,6.84,6.84,0,0,1-6.44,4.69c.5-.63,1-1.22,1.47-1.84a5,5,0,0,0,1.07-4A4.28,4.28,0,0,0,90.72,99a7.55,7.55,0,0,0-3.89-3.41c-.15-.06-.31-.1-.54-.17V120.5a11.38,11.38,0,0,1-.59,4.59A9.93,9.93,0,0,1,78.6,131a11.26,11.26,0,0,1-11.35-2.94,8.6,8.6,0,0,1,1.11-13.18,12,12,0,0,1,14.35.07C82.82,115.06,82.94,115.14,83.17,115.3Z"></path><path d="M40.72,66.81V46.93l.17.24A14.81,14.81,0,0,0,44.41,51a9.35,9.35,0,0,1,3,3.7,5.57,5.57,0,0,1,.43,3.85A4.07,4.07,0,0,1,44,61.36c.3-.37.6-.73.88-1.1a3,3,0,0,0,.64-2.39,2.56,2.56,0,0,0-.26-.78,4.52,4.52,0,0,0-2.33-2,2.49,2.49,0,0,0-.32-.1v15a6.88,6.88,0,0,1-.35,2.74A5.93,5.93,0,0,1,38,76.2a6.71,6.71,0,0,1-6.77-1.76,5.12,5.12,0,0,1,.66-7.86,7.14,7.14,0,0,1,8.56,0Z"></path><path d="M432,116V96.12l.18.24a15.11,15.11,0,0,0,3.51,3.84,9.35,9.35,0,0,1,3,3.7,5.57,5.57,0,0,1,.43,3.85,4.07,4.07,0,0,1-3.84,2.8c.3-.37.6-.73.87-1.1a3,3,0,0,0,.64-2.39,2.72,2.72,0,0,0-.26-.79,4.48,4.48,0,0,0-2.32-2,2.71,2.71,0,0,0-.33-.1v.47q0,7.24,0,14.49a6.71,6.71,0,0,1-.36,2.74,5.93,5.93,0,0,1-4.23,3.55,6.72,6.72,0,0,1-6.78-1.76,5.14,5.14,0,0,1,.66-7.87,7.17,7.17,0,0,1,8.57,0C431.79,115.86,431.87,115.9,432,116Z"></path><path d="M146,117V97.12l.18.24a15.11,15.11,0,0,0,3.51,3.84,9.35,9.35,0,0,1,3,3.7,5.57,5.57,0,0,1,.43,3.85,4.07,4.07,0,0,1-3.84,2.8c.3-.37.6-.73.87-1.1a3,3,0,0,0,.64-2.39,2.72,2.72,0,0,0-.26-.79,4.48,4.48,0,0,0-2.32-2,2.71,2.71,0,0,0-.33-.1v.47q0,7.24,0,14.49a6.71,6.71,0,0,1-.36,2.74,5.93,5.93,0,0,1-4.23,3.55,6.72,6.72,0,0,1-6.78-1.76,5.14,5.14,0,0,1,.66-7.87,7.17,7.17,0,0,1,8.57,0C145.79,116.86,145.87,116.9,146,117Z"></path></g></g></svg>